<svg width="92" height="92" viewBox="0 0 92 92" fill="none" xmlns="http://www.w3.org/2000/svg">
<circle cx="45.6667" cy="45.6667" r="44.6667" fill="#141415" stroke="#DCD7D0" stroke-width="2"/>
<mask id="mask0_1431_2454" style="mask-type:luminance" maskUnits="userSpaceOnUse" x="30" y="50" width="31" height="15">
<path fill-rule="evenodd" clip-rule="evenodd" d="M30.4448 50.416H60.5846V64.4471H30.4448V50.416Z" fill="white"/>
</mask>
<g mask="url(#mask0_1431_2454)">
<path fill-rule="evenodd" clip-rule="evenodd" d="M45.5165 53.2703C37.4088 53.2703 33.2988 54.6631 33.2988 57.4126C33.2988 60.1869 37.4088 61.593 45.5165 61.593C53.6223 61.593 57.7304 60.2002 57.7304 57.4507C57.7304 54.6764 53.6223 53.2703 45.5165 53.2703ZM45.5167 64.4471C41.7892 64.4471 30.4448 64.4471 30.4448 57.4125C30.4448 51.141 39.0473 50.416 45.5167 50.416C49.2443 50.416 60.5848 50.416 60.5848 57.4506C60.5848 63.7221 51.9843 64.4471 45.5167 64.4471Z" fill="#7B7B7B"/>
</g>
<mask id="mask1_1431_2454" style="mask-type:luminance" maskUnits="userSpaceOnUse" x="35" y="26" width="21" height="21">
<path fill-rule="evenodd" clip-rule="evenodd" d="M35.4116 26.6389H55.6192V46.8438H35.4116V26.6389Z" fill="white"/>
</mask>
<g mask="url(#mask1_1431_2454)">
<path fill-rule="evenodd" clip-rule="evenodd" d="M45.5167 29.355C41.4429 29.355 38.1282 32.6677 38.1282 36.7416C38.1149 40.8021 41.4048 44.1129 45.4615 44.1282L45.5167 45.4868V44.1282C49.5887 44.1282 52.9014 40.8135 52.9014 36.7416C52.9014 32.6677 49.5887 29.355 45.5167 29.355ZM45.5173 46.8435H45.4564C39.8965 46.8264 35.3927 42.2921 35.4117 36.736C35.4117 31.1704 39.9441 26.6379 45.5173 26.6379C51.0887 26.6379 55.6192 31.1704 55.6192 36.7417C55.6192 42.313 51.0887 46.8435 45.5173 46.8435Z" fill="#7B7B7B"/>
</g>
</svg>
