<svg width="94" height="94" viewBox="0 0 94 94" fill="none" xmlns="http://www.w3.org/2000/svg">
<g opacity="0.3">
<circle cx="45" cy="45" r="45.75" transform="matrix(-1 8.74228e-08 8.74228e-08 1 91.7314 1.65869)" fill="#141415" stroke="#DCD7D0" stroke-width="1.5"/>
<mask id="mask0_1701_2247" style="mask-type:luminance" maskUnits="userSpaceOnUse" x="32" y="51" width="30" height="15">
<path fill-rule="evenodd" clip-rule="evenodd" d="M61.7314 51.3389L32.0316 51.3389L32.0316 65.1651L61.7314 65.1651L61.7314 51.3389Z" fill="white"/>
</mask>
<g mask="url(#mask0_1701_2247)">
<path fill-rule="evenodd" clip-rule="evenodd" d="M46.8796 54.1514C54.8689 54.1514 58.9189 55.5239 58.9189 58.2332C58.9189 60.967 54.8689 62.3526 46.8796 62.3526C38.8921 62.3526 34.8439 60.9801 34.8439 58.2707C34.8439 55.537 38.8921 54.1514 46.8796 54.1514ZM46.8796 65.1651C50.5527 65.1651 61.7314 65.1651 61.7314 58.2332C61.7314 52.0532 53.2546 51.3389 46.8796 51.3389C43.2064 51.3389 32.0314 51.3389 32.0314 58.2707C32.0314 64.4507 40.5064 65.1651 46.8796 65.1651Z" fill="#7B7B7B"/>
</g>
<mask id="mask1_1701_2247" style="mask-type:luminance" maskUnits="userSpaceOnUse" x="36" y="27" width="21" height="21">
<path fill-rule="evenodd" clip-rule="evenodd" d="M56.8379 27.9087L36.9253 27.9087L36.9253 47.8186L56.8379 47.8186L56.8379 27.9087Z" fill="white"/>
</mask>
<g mask="url(#mask1_1701_2247)">
<path fill-rule="evenodd" clip-rule="evenodd" d="M46.8797 30.5852C50.8941 30.5852 54.1603 33.8496 54.1603 37.864C54.1735 41.8652 50.9316 45.1277 46.9341 45.1427L46.8797 46.4815L46.8797 45.1427C42.8672 45.1427 39.6028 41.8765 39.6028 37.864C39.6028 33.8496 42.8672 30.5852 46.8797 30.5852ZM46.8797 47.8183L46.9397 47.8183C52.4185 47.8015 56.8566 43.3333 56.8378 37.8583C56.8378 32.374 52.3716 27.9077 46.8797 27.9077C41.3897 27.9077 36.9253 32.374 36.9253 37.864C36.9253 43.354 41.3897 47.8183 46.8797 47.8183Z" fill="#7B7B7B"/>
</g>
</g>
</svg>
