<svg width="95" height="96" viewBox="0 0 95 96" fill="none" xmlns="http://www.w3.org/2000/svg">
<mask id="mask0_1418_1660" style="mask-type:luminance" maskUnits="userSpaceOnUse" x="1" y="1" width="93" height="94">
<path d="M47.4994 94.099C72.7127 94.099 93.1521 73.4519 93.1521 47.9824C93.1521 22.5128 72.7127 1.86572 47.4994 1.86572C22.2861 1.86572 1.84668 22.5128 1.84668 47.9824C1.84668 73.4519 22.2861 94.099 47.4994 94.099Z" fill="white"/>
</mask>
<g mask="url(#mask0_1418_1660)">
<path d="M93.1658 1.87842H1.86035V94.1117H93.1658V1.87842Z" fill="#141415"/>
<path d="M66.5159 36.4724C66.2705 36.4072 66.0121 36.3811 65.7409 36.3941C65.6504 36.3941 65.5471 36.4072 65.4567 36.4333C65.4567 36.4724 65.4567 36.4855 65.4567 36.4855C65.4567 36.4855 64.9012 36.5637 64.449 36.89C64.3199 36.9944 64.2036 37.1118 64.1003 37.2293C63.9582 37.425 63.8677 37.6599 63.8677 37.9731C63.661 41.4442 61.6071 42.2011 61.6071 42.2011L61.7233 25.4326L63.0151 23.2142C56.0652 19.469 49.6449 19.3385 42.7724 19.3255C42.5657 19.3255 42.359 19.2341 42.2169 19.0906C38.2252 19.5734 34.2723 21.0741 32.4379 22.1702C32.9546 23.3708 33.8331 24.7801 33.8331 24.7801L33.5747 42.2011C31.947 42.4621 31.637 40.8831 31.5336 40.0871C31.4303 39.2911 30.9523 36.9161 29.8026 36.4855C29.8026 36.4855 29.8026 36.4594 29.8026 36.4463C29.738 36.4463 29.6734 36.4463 29.6088 36.4463C29.4409 36.4463 29.273 36.4855 29.1179 36.5246C28.0587 36.8117 27.3094 37.8165 27.374 38.9648C27.374 39.004 27.374 39.0431 27.374 39.0692C27.5548 41.4573 29.5313 45.346 30.9911 46.2725C31.1978 46.403 31.3915 46.4813 31.5724 46.4813C31.5724 46.4813 31.5982 46.4813 31.6111 46.4813C31.8178 46.4813 32.0374 46.2595 32.0245 46.1029L32.0504 48.2299C32.1666 50.0699 32.58 51.3879 33.6135 52.1056L37.7085 55.107L41.261 57.7299C41.4677 57.8865 41.7131 57.9648 41.9586 57.9648H53.1198C53.3653 57.9648 53.6107 57.8865 53.8174 57.7299L57.4087 55.0939L61.465 52.1187C62.6018 51.2443 62.9893 49.8742 63.0281 48.4387L63.1572 45.7766C63.2606 46.129 63.5835 46.403 63.9711 46.4161C63.9711 46.4161 63.9969 46.4161 64.0098 46.4161C64.1907 46.4161 64.3845 46.3508 64.5911 46.2073C66.0509 45.2808 68.0403 41.379 68.2211 38.9909C68.2211 38.9518 68.2211 38.9126 68.2211 38.8865C68.2857 37.7382 67.5365 36.7334 66.4772 36.4463L66.5159 36.4724Z" fill="#AE644E"/>
<path d="M66.5159 36.4724C66.2705 36.4072 66.0121 36.3811 65.7409 36.3941C65.6504 36.3941 65.5471 36.4072 65.4567 36.4333C65.4567 36.4724 65.4567 36.4855 65.4567 36.4855C65.4567 36.4855 64.9012 36.5637 64.449 36.89C64.3199 36.9944 64.2036 37.1118 64.1003 37.2293C63.9582 37.425 63.8677 37.6599 63.8677 37.9731C63.661 41.4442 61.6071 42.2011 61.6071 42.2011L61.7233 25.4326L63.0151 23.2142C56.0652 19.469 49.6449 19.3385 42.7724 19.3255C42.5657 19.3255 42.359 19.2341 42.2169 19.0906C38.2252 19.5734 34.2723 21.0741 32.4379 22.1702C32.9546 23.3708 33.8331 24.7801 33.8331 24.7801L33.5747 42.2011C31.947 42.4621 31.637 40.8831 31.5336 40.0871C31.4303 39.2911 30.9523 36.9161 29.8026 36.4855C29.8026 36.4855 29.8026 36.4594 29.8026 36.4463C29.738 36.4463 29.6734 36.4463 29.6088 36.4463C29.4409 36.4463 29.273 36.4855 29.1179 36.5246C28.0587 36.8117 27.3094 37.8165 27.374 38.9648C27.374 39.004 27.374 39.0431 27.374 39.0692C27.5548 41.4573 29.5313 45.346 30.9911 46.2725C31.1978 46.403 31.3915 46.4813 31.5724 46.4813C31.5724 46.4813 31.5982 46.4813 31.6111 46.4813C31.8178 46.4813 32.0374 46.2595 32.0245 46.1029L32.0504 48.2299C32.1666 50.0699 32.58 51.3879 33.6135 52.1056L37.7085 55.107L41.261 57.7299C41.4677 57.8865 41.7131 57.9648 41.9586 57.9648H53.1198C53.3653 57.9648 53.6107 57.8865 53.8174 57.7299L57.4087 55.0939L61.465 52.1187C62.6018 51.2443 62.9893 49.8742 63.0281 48.4387L63.1572 45.7766C63.2606 46.129 63.5835 46.403 63.9711 46.4161C63.9711 46.4161 63.9969 46.4161 64.0098 46.4161C64.1907 46.4161 64.3845 46.3508 64.5911 46.2073C66.0509 45.2808 68.0403 41.379 68.2211 38.9909C68.2211 38.9518 68.2211 38.9126 68.2211 38.8865C68.2857 37.7382 67.5365 36.7334 66.4772 36.4463L66.5159 36.4724Z" fill="#A27C4D"/>
<path opacity="0.7" d="M33.7163 30.9658L33.5483 42.2144C31.9206 42.4754 31.6106 40.8964 31.5073 40.1004C31.4039 39.3044 30.9259 36.9294 29.7762 36.4988C29.7762 36.4988 29.7762 36.4727 29.7762 36.4596C29.7116 36.4596 29.6471 36.4596 29.5825 36.4596C29.4145 36.4596 29.2466 36.4988 29.0916 36.5379C28.0323 36.825 27.283 37.8298 27.3476 38.9782C27.3476 39.0173 27.3476 39.0565 27.3476 39.0826C27.5285 41.4706 29.505 45.3593 30.9647 46.2858C31.1714 46.4163 31.3652 46.4946 31.546 46.4946C31.546 46.4946 31.5719 46.4946 31.5848 46.4946C31.7915 46.4946 32.0111 46.2728 31.9982 46.1162L32.024 48.2433C32.1403 50.0832 32.5536 51.4012 33.5871 52.1189L37.6821 55.1203L41.2346 57.7432C41.4413 57.8998 41.6868 57.9781 41.9322 57.9781H47.7712V30.9658H33.6775H33.7163Z" fill="url(#paint0_linear_1418_1660)"/>
<path opacity="0.3" d="M51.8662 34.1111L52.0729 32.0232L56.3746 32.4408C57.1497 32.5191 57.8731 32.8845 58.364 33.4456L59.6042 34.8549L51.8662 34.1111Z" fill="url(#paint1_linear_1418_1660)"/>
<path opacity="0.3" d="M43.4704 34.1111L43.2637 32.0232L38.962 32.4408C38.1869 32.5191 37.4635 32.8845 36.9726 33.4456L35.7324 34.8549L43.4704 34.1111Z" fill="url(#paint2_linear_1418_1660)"/>
<path opacity="0.3" d="M42.7334 54.8985H52.6029L47.7586 52.8105L42.7334 54.8985Z" fill="url(#paint3_linear_1418_1660)"/>
<path opacity="0.7" d="M50.29 25.968L56.5553 26.9859C57.4596 27.1294 58.2347 27.5731 58.661 28.1864L59.3586 29.2043L52.8478 28.33C52.034 28.2256 51.3493 27.808 51.0264 27.2469L50.29 25.968Z" fill="url(#paint4_linear_1418_1660)"/>
<path opacity="0.7" d="M45.2267 25.968L38.9614 26.9859C38.0572 27.1294 37.2821 27.5731 36.8558 28.1864L36.1582 29.2043L42.6689 28.33C43.4828 28.2256 44.1674 27.808 44.4904 27.2469L45.2267 25.968Z" fill="url(#paint5_linear_1418_1660)"/>
<path d="M47.19 43.5845L44.981 41.5227L38.9482 44.4197L47.19 43.5845Z" fill="#B6ACA0"/>
<path d="M48.4951 43.5845L50.7041 41.5227L56.724 44.4197L48.4951 43.5845Z" fill="#B6ACA0"/>
<path opacity="0.7" d="M37.4494 45.3464L33.561 42.2145C31.9333 42.4755 31.6233 40.8965 31.52 40.1005C31.4166 39.3045 30.9386 36.9295 29.7889 36.4989C29.7889 36.4989 29.7889 36.4728 29.7889 36.4597C29.7243 36.4597 29.6598 36.4597 29.5952 36.4597C29.4272 36.4597 29.2593 36.4989 29.1043 36.538C28.045 36.8251 27.2957 37.8299 27.3603 38.9783C27.3603 39.0174 27.3603 39.0566 27.3603 39.0827C27.5412 41.4707 29.5177 45.3594 30.9774 46.2859C31.1841 46.4164 31.3779 46.4947 31.5587 46.4947C31.5587 46.4947 31.5846 46.4947 31.5975 46.4947C31.8042 46.4947 32.0238 46.2729 32.0109 46.1163L32.0367 48.2433C32.153 50.0833 32.5663 51.4013 33.5998 52.119L40.1234 56.9082L39.6584 49.9137C39.5163 48.152 38.7154 46.5208 37.4236 45.3464H37.4494Z" fill="url(#paint6_linear_1418_1660)"/>
<path opacity="0.7" d="M66.5152 36.4727C66.2698 36.4074 66.0114 36.3813 65.7401 36.3944C65.6497 36.3944 65.5464 36.4074 65.4559 36.4335C65.4559 36.4727 65.4559 36.4857 65.4559 36.4857C65.4559 36.4857 64.9005 36.564 64.4483 36.8903C64.3191 36.9947 64.2029 37.1121 64.0995 37.2295C63.9574 37.4253 63.867 37.6602 63.867 37.9734C63.6603 41.4445 61.6063 42.2014 61.6063 42.2014L58.0797 45.3463C56.775 46.5207 55.974 48.1519 55.8448 49.9136L55.3281 56.5818L56.7879 55.5901L57.4596 55.0942L61.5159 52.1189C62.6527 51.2446 63.0403 49.8744 63.079 48.439L63.2082 45.7769C63.3115 46.1292 63.6345 46.4033 64.022 46.4163C64.022 46.4163 64.0479 46.4163 64.0608 46.4163C64.2416 46.4163 64.4354 46.3511 64.6421 46.2075C66.1019 45.281 68.0912 41.3793 68.2721 38.9912C68.2721 38.9521 68.2721 38.9129 68.2721 38.8868C68.3367 37.7385 67.5874 36.7337 66.5282 36.4466L66.5152 36.4727Z" fill="url(#paint7_linear_1418_1660)"/>
<path d="M33.5611 42.2141L33.8195 24.7931C33.8195 24.7931 32.9411 23.3838 32.4243 22.1832C34.7238 20.813 40.369 18.7904 45.2391 18.96L39.7489 12.0308C39.7489 12.0308 30.9517 13.5706 29.802 19.5994C28.6522 25.6283 30.0603 34.3583 29.802 36.5245C30.9517 36.9421 31.4296 39.3301 31.533 40.1262C31.6363 40.9222 31.9464 42.5012 33.5741 42.2402L33.5611 42.2141Z" fill="url(#paint8_linear_1418_1660)"/>
<path d="M42.7455 19.3389C49.618 19.3389 56.0383 19.4693 62.9883 23.2276L61.6965 25.446L61.5802 42.2145C61.5802 42.2145 63.6471 41.4576 63.8409 37.9865C63.8409 36.7337 65.4298 36.4988 65.4298 36.4988C65.4298 36.4988 65.8303 30.9137 66.1015 28.4865C66.3728 26.0593 67.7551 17.1074 59.72 13.4275C52.6408 10.1912 40.6011 10.8828 37.8496 11.0916C37.5654 11.1177 37.3974 11.4048 37.5266 11.6658C38.1725 12.9968 40.0198 16.5593 42.1255 19.0779C42.2805 19.2606 42.5001 19.3519 42.7197 19.3519L42.7455 19.3389Z" fill="url(#paint9_linear_1418_1660)"/>
<path d="M57.4466 55.1071L53.8553 57.7431C53.6486 57.8866 53.4032 57.978 53.1578 57.978H41.9965C41.7381 57.978 41.4927 57.8997 41.2989 57.7431L37.7464 55.1202L33.6514 52.1318V59.3743L46.1174 64.0329H49.2306L61.3866 59.3743V65.651V52.2101L57.4595 55.0941L57.4466 55.1071Z" fill="url(#paint10_linear_1418_1660)"/>
<path opacity="0.7" d="M41.2598 47.134H54.1133L47.8093 45.3071L41.2598 47.134Z" fill="url(#paint11_linear_1418_1660)"/>
<path opacity="0.7" d="M54.1133 47.134H41.2598L47.7963 49.9397L54.1133 47.134Z" fill="url(#paint12_linear_1418_1660)"/>
<path d="M61.374 94.0986V63.4456L65.9341 66.1859L72.0702 72.4366C72.3803 72.7498 72.2123 73.2979 71.7731 73.3762L63.583 74.8377L78.7231 72.1234C79.0202 72.0712 79.2656 72.3583 79.1623 72.6454L72.5353 94.0986" fill="#B6ACA0"/>
<path d="M65.9214 66.1732L72.0575 72.4239C72.3676 72.7371 72.1996 73.2851 71.7604 73.3634L63.5703 74.825L78.7104 72.1107C79.0075 72.0585 79.253 72.3456 79.1496 72.6327L72.5226 94.0859H61.3613H93.1529V76.2996L65.9214 66.1602V66.1732Z" fill="#ADA193"/>
<path d="M76.4574 75.1149L72.9219 75.946L73.0185 76.3655L76.554 75.5344L76.4574 75.1149Z" fill="#ADA193"/>
<path d="M33.6395 94.0986V63.4456L29.0794 66.1859L22.9432 72.4366C22.6332 72.7498 22.8011 73.2979 23.2404 73.3762L31.4305 74.8377L16.2904 72.1234C15.9933 72.0712 15.7478 72.3583 15.8512 72.6454L22.4782 94.0986" fill="#B6ACA0"/>
<path d="M29.0781 66.1732L22.942 72.4239C22.632 72.7371 22.7999 73.2851 23.2391 73.3634L31.4292 74.825L16.2892 72.1107C15.992 72.0585 15.7466 72.3456 15.8499 72.6327L22.4769 94.0859H33.6382H1.84668V76.2996L29.0781 66.1602V66.1732Z" fill="#ADA193"/>
<path d="M18.5517 75.1123L18.4551 75.5317L21.9906 76.3628L22.0872 75.9434L18.5517 75.1123Z" fill="#ADA193"/>
<path d="M46.1047 64.0461L33.6387 59.3875V68.5612L38.2892 70.2968V63.4719L44.0119 66.8126L46.1047 64.0461Z" fill="#A69888"/>
<path d="M49.2178 64.0461L51.3105 66.6299L52.1114 66.1601L56.1677 63.7982L56.7232 63.4719V70.3881L61.3737 68.5612V59.3875L49.2178 64.0461Z" fill="#A69888"/>
<path d="M47.5515 81.8065C47.9511 81.8065 48.275 81.4793 48.275 81.0757C48.275 80.6721 47.9511 80.345 47.5515 80.345C47.152 80.345 46.8281 80.6721 46.8281 81.0757C46.8281 81.4793 47.152 81.8065 47.5515 81.8065Z" fill="#0F141F"/>
<path d="M56.7234 70.3879V74.2244L52.1116 71.5363L47.5128 68.8611L51.3236 66.6427L49.2179 64.0459H47.4998H46.1047L43.999 66.8254L47.4869 68.8611L42.901 71.5363L38.2892 74.2244V70.2966L33.6387 68.561V94.0987H61.3739V68.561L56.7234 70.3879Z" fill="#9E8E80"/>
<path d="M47.5 94.0987H61.3741V68.561L56.7236 70.3879V74.2244L52.1118 71.5363L47.5129 68.8611L51.3238 66.6427L49.2181 64.0459H47.5" fill="url(#paint13_linear_1418_1660)"/>
<path d="M47.5515 81.7936C47.9511 81.7936 48.275 81.4664 48.275 81.0628C48.275 80.6592 47.9511 80.332 47.5515 80.332C47.152 80.332 46.8281 80.6592 46.8281 81.0628C46.8281 81.4664 47.152 81.7936 47.5515 81.7936Z" fill="#222526"/>
<path d="M56.1678 63.7982L52.1115 66.1601L49.5278 67.6738L48.0035 68.5612L47.4997 68.8483L38.2891 63.4719V74.2246L42.9008 71.5365L47.4997 68.8483L52.1115 71.5365L56.7232 74.2246V63.4719L56.1678 63.7982Z" fill="#222526"/>
</g>
<path d="M47.5 95.9785C21.3149 95.9785 0 74.4469 0 47.9827C0 21.5185 21.3149 0 47.5 0C73.6851 0 95 21.5315 95 47.9827C95 74.4339 73.6851 95.9654 47.5 95.9654V95.9785ZM47.5 1.97046C22.3871 1.97046 1.95064 22.6146 1.95064 47.9827C1.95064 73.3508 22.3871 94.008 47.5129 94.008C72.6387 94.008 93.0752 73.3638 93.0752 47.9827C93.0752 22.6016 72.6258 1.97046 47.5 1.97046Z" fill="#D0CBC4"/>
<defs>
<linearGradient id="paint0_linear_1418_1660" x1="55.057" y1="44.5764" x2="27.4768" y2="44.3078" gradientUnits="userSpaceOnUse">
<stop stop-color="#804B32"/>
<stop offset="0.04" stop-color="#885638"/>
<stop offset="0.11" stop-color="#936741"/>
<stop offset="0.2" stop-color="#9B7348"/>
<stop offset="0.33" stop-color="#A07A4B"/>
<stop offset="0.69" stop-color="#A27C4D"/>
</linearGradient>
<linearGradient id="paint1_linear_1418_1660" x1="56.1292" y1="30.9401" x2="55.6021" y2="35.3626" gradientUnits="userSpaceOnUse">
<stop offset="0.16" stop-color="#804B32"/>
<stop offset="0.23" stop-color="#855236"/>
<stop offset="0.51" stop-color="#956942"/>
<stop offset="0.77" stop-color="#9E774A"/>
<stop offset="1" stop-color="#A27C4D"/>
</linearGradient>
<linearGradient id="paint2_linear_1418_1660" x1="39.3107" y1="31.436" x2="39.6666" y2="35.1283" gradientUnits="userSpaceOnUse">
<stop offset="0.16" stop-color="#804B32"/>
<stop offset="0.23" stop-color="#855236"/>
<stop offset="0.51" stop-color="#956942"/>
<stop offset="0.77" stop-color="#9E774A"/>
<stop offset="1" stop-color="#A27C4D"/>
</linearGradient>
<linearGradient id="paint3_linear_1418_1660" x1="47.6681" y1="51.6491" x2="47.6681" y2="55.8641" gradientUnits="userSpaceOnUse">
<stop stop-color="#804B32"/>
<stop offset="0.27" stop-color="#8B5B3B"/>
<stop offset="0.72" stop-color="#9C7348"/>
<stop offset="1" stop-color="#A27C4D"/>
</linearGradient>
<linearGradient id="paint4_linear_1418_1660" x1="55.1214" y1="25.1981" x2="54.4889" y2="30.2206" gradientUnits="userSpaceOnUse">
<stop stop-color="#804B32"/>
<stop offset="0.02" stop-color="#814C32"/>
<stop offset="0.3" stop-color="#936641"/>
<stop offset="0.56" stop-color="#9E7649"/>
<stop offset="0.76" stop-color="#A27C4D"/>
</linearGradient>
<linearGradient id="paint5_linear_1418_1660" x1="40.4083" y1="24.7805" x2="41.0013" y2="30.5733" gradientUnits="userSpaceOnUse">
<stop stop-color="#804B32"/>
<stop offset="0.02" stop-color="#814C32"/>
<stop offset="0.3" stop-color="#936641"/>
<stop offset="0.56" stop-color="#9E7649"/>
<stop offset="0.76" stop-color="#A27C4D"/>
</linearGradient>
<linearGradient id="paint6_linear_1418_1660" x1="45.8333" y1="33.354" x2="27.264" y2="54.5953" gradientUnits="userSpaceOnUse">
<stop stop-color="#804B32"/>
<stop offset="0.19" stop-color="#8D5E3D"/>
<stop offset="0.42" stop-color="#996F45"/>
<stop offset="0.67" stop-color="#9F784B"/>
<stop offset="1" stop-color="#A27C4D"/>
</linearGradient>
<linearGradient id="paint7_linear_1418_1660" x1="53.3517" y1="38.1691" x2="63.0789" y2="48.393" gradientUnits="userSpaceOnUse">
<stop stop-color="#804B32"/>
<stop offset="0.19" stop-color="#8D5E3D"/>
<stop offset="0.42" stop-color="#996F45"/>
<stop offset="0.67" stop-color="#9F784B"/>
<stop offset="1" stop-color="#A27C4D"/>
</linearGradient>
<linearGradient id="paint8_linear_1418_1660" x1="45.7171" y1="17.8378" x2="30.2275" y2="30.8631" gradientUnits="userSpaceOnUse">
<stop offset="0.12" stop-color="#ADA193"/>
<stop offset="0.14" stop-color="#ADA193"/>
<stop offset="0.5" stop-color="#B3A99D"/>
<stop offset="1" stop-color="#B6ACA0"/>
</linearGradient>
<linearGradient id="paint9_linear_1418_1660" x1="61.8773" y1="8.67748" x2="50.5077" y2="25.4047" gradientUnits="userSpaceOnUse">
<stop offset="0.18" stop-color="#ADA193"/>
<stop offset="0.42" stop-color="#B2A79B"/>
<stop offset="0.73" stop-color="#B6ACA0"/>
</linearGradient>
<linearGradient id="paint10_linear_1418_1660" x1="47.59" y1="48.752" x2="47.4582" y2="64.4896" gradientUnits="userSpaceOnUse">
<stop stop-color="#804B32"/>
<stop offset="0.07" stop-color="#835035"/>
<stop offset="0.41" stop-color="#946842"/>
<stop offset="0.73" stop-color="#9E774A"/>
<stop offset="1" stop-color="#A27C4D"/>
</linearGradient>
<linearGradient id="paint11_linear_1418_1660" x1="47.693" y1="43.8847" x2="47.693" y2="49.0262" gradientUnits="userSpaceOnUse">
<stop offset="0.26" stop-color="#A27C4D"/>
<stop offset="0.55" stop-color="#976C44"/>
<stop offset="1" stop-color="#804B32"/>
</linearGradient>
<linearGradient id="paint12_linear_1418_1660" x1="47.7059" y1="46.3772" x2="47.5477" y2="53.5543" gradientUnits="userSpaceOnUse">
<stop offset="0.1" stop-color="#A27C4D"/>
<stop offset="0.37" stop-color="#9A7147"/>
<stop offset="0.83" stop-color="#885638"/>
<stop offset="1" stop-color="#804B32"/>
</linearGradient>
<linearGradient id="paint13_linear_1418_1660" x1="44.9939" y1="96.7216" x2="64.0724" y2="61.7801" gradientUnits="userSpaceOnUse">
<stop offset="0.23" stop-color="#A69888"/>
<stop offset="0.75" stop-color="#9E8E80"/>
</linearGradient>
</defs>
</svg>
